# xmcd CD database file
#
# Track frame offsets:
#	150
#	14331
#	26851
#	43052
#	58126
#	80161
#	97036
#	113465
#	125389
#	138965
#	167164
#	185237
#	200761
#	223938
#
# Disc length: 3150 seconds
#
# Revision: 0
# Processed by: cddbd v1.5.2PL0 Copyright (c) Steve Scherf et al.
# Submitted via: CDex 1.79
#
DISCID=d60c4c0e
DTITLE=Lyle Lovett - Release Me
DYEAR=2012
DGENRE=Country
TTITLE0=Garfield's Blackberry Blossom
TTITLE1=Release Me (featuring k. d. lang
TTITLE2=White Boy Lost In The Blues
TTITLE3=Baby, It's Cold Outside
TTITLE4=Isn't That So
TTITLE5=Understand You
TTITLE6=Brown Eyed Handsome Man
TTITLE7=Keep It Clean
TTITLE8=One Way Gal
TTITLE9=Dress Of Laces
TTITLE10=The Girl With The Holiday Smile
TTITLE11=Night's Lullaby
TTITLE12=White Freightliner
TTITLE13=Keep Us Steadfast
EXTD=YEAR: 2012
EXTT0=
EXTT1=
EXTT2=
EXTT3=
EXTT4=
EXTT5=
EXTT6=
EXTT7=
EXTT8=
EXTT9=
EXTT10=
EXTT11=
EXTT12=
EXTT13=
PLAYORDER=
